<svg width="38" height="38" viewBox="0 0 38 38" fill="none" xmlns="http://www.w3.org/2000/svg">
<rect width="38" height="38" rx="6" fill="#004046"/>
<path d="M22.3332 14.8333C22.3332 16.6743 20.8408 18.1667 18.9998 18.1667C17.1589 18.1667 15.6665 16.6743 15.6665 14.8333C15.6665 12.9924 17.1589 11.5 18.9998 11.5C20.8408 11.5 22.3332 12.9924 22.3332 14.8333Z" stroke="#0AF573" stroke-width="2"/>
<path d="M25.6668 26.5V25.7858C25.6668 24.9004 25.6668 24.4577 25.5832 24.0916C25.2983 22.8432 24.3236 21.8685 23.0752 21.5836C22.7091 21.5 22.2664 21.5 21.3811 21.5H17.3335C15.7804 21.5 15.0038 21.5 14.3912 21.7537C13.5745 22.0921 12.9255 22.741 12.5872 23.5577C12.3335 24.1703 12.3335 24.9468 12.3335 26.5" stroke="#0AF573" stroke-width="2" stroke-linecap="round"/>
</svg>
