<svg width="16" height="17" viewBox="0 0 16 17" fill="none" xmlns="http://www.w3.org/2000/svg">
<path d="M6.56839 10.0045L2.43439 7.37379C1.61106 6.84986 1.61106 5.64798 2.43439 5.12404L6.56839 2.49332C7.44192 1.93745 8.55819 1.93745 9.43172 2.49332L13.5657 5.12404C14.3891 5.64798 14.3891 6.84987 13.5657 7.37379L9.43172 10.0045C8.55819 10.5604 7.44192 10.5604 6.56839 10.0045Z" stroke="#5A6162" stroke-width="1.3" stroke-linejoin="round"/>
<path d="M12.1905 8.2489L13.5657 9.12403C14.3891 9.64797 14.3891 10.8498 13.5657 11.3738L9.43172 14.0045C8.55819 14.5604 7.44192 14.5604 6.56839 14.0045L2.43439 11.3738C1.61106 10.8498 1.61106 9.64797 2.43439 9.12403L3.80958 8.2489" stroke="#5A6162" stroke-width="1.3" stroke-linejoin="round"/>
</svg>
