<svg width="84" height="84" viewBox="0 0 84 84" fill="none" xmlns="http://www.w3.org/2000/svg">
<g clip-path="url(#clip0_1653_395)">
<path d="M71.1097 15.2943C65.7559 12.8378 60.0147 11.0279 54.0118 9.99117C53.9025 9.97115 53.7933 10.0212 53.737 10.1211C52.9985 11.4344 52.1807 13.1476 51.608 14.4942C45.1516 13.5275 38.7282 13.5275 32.4043 14.4942C31.8314 13.1177 30.9838 11.4344 30.2421 10.1211C30.1858 10.0245 30.0765 9.97443 29.9673 9.99117C23.9678 11.0244 18.2266 12.8344 12.8693 15.2943C12.8229 15.3143 12.7832 15.3476 12.7568 15.391C1.86699 31.6602 -1.11632 47.5296 0.347116 63.2022C0.353678 63.2788 0.396827 63.3522 0.456381 63.3989C7.64117 68.6753 14.601 71.8785 21.4314 74.0018C21.5407 74.0351 21.6565 73.9952 21.7261 73.9052C23.3418 71.6987 24.7821 69.3721 26.017 66.9254C26.0898 66.7822 26.0203 66.6121 25.8713 66.5555C23.5867 65.6889 21.4114 64.6322 19.3188 63.4324C19.1533 63.3358 19.14 63.099 19.2924 62.9856C19.7327 62.6557 20.1732 62.3123 20.5937 61.9657C20.6699 61.9023 20.7758 61.8891 20.8653 61.9289C34.6124 68.2055 49.4953 68.2055 63.0802 61.9289C63.1696 61.8856 63.2756 61.8991 63.355 61.9622C63.7756 62.3089 64.216 62.6556 64.6596 62.9855C64.8119 63.0989 64.8019 63.3356 64.6365 63.4322C62.5439 64.6555 60.3686 65.6887 58.0807 66.552C57.9317 66.6086 57.8655 66.7821 57.9385 66.9253C59.1999 69.3685 60.6402 71.6951 62.2261 73.9017C62.2924 73.9951 62.4115 74.0351 62.5207 74.0016C69.3843 71.8785 76.3441 68.6752 83.5289 63.3988C83.5919 63.3522 83.6316 63.2821 83.6382 63.2055C85.3897 45.0863 80.7046 29.3469 71.2187 15.3942C71.1957 15.3476 71.156 15.3143 71.1097 15.2943ZM28.0702 53.6592C23.9314 53.6592 20.5211 49.8595 20.5211 45.1929C20.5211 40.5265 23.8651 36.7266 28.0702 36.7266C32.3081 36.7266 35.6855 40.5598 35.6192 45.1929C35.6192 49.8595 32.275 53.6592 28.0702 53.6592ZM55.9817 53.6592C51.8431 53.6592 48.4327 49.8595 48.4327 45.1929C48.4327 40.5265 51.7768 36.7266 55.9817 36.7266C60.2198 36.7266 63.597 40.5598 63.5309 45.1929C63.5309 49.8595 60.2199 53.6592 55.9817 53.6592Z" fill="#5865F2"/>
</g>
<defs>
<clipPath id="clip0_1653_395">
<rect width="84" height="84" fill="white"/>
</clipPath>
</defs>
</svg>
