<svg width="16" height="18" viewBox="0 0 16 18" fill="none" xmlns="http://www.w3.org/2000/svg">
<path d="M11.3669 4.79278C11.3669 6.65238 9.85941 8.15988 7.99981 8.15988C6.14031 8.15988 4.63281 6.65238 4.63281 4.79278C4.63281 2.93328 6.14031 1.42578 7.99981 1.42578C9.85941 1.42578 11.3669 2.93328 11.3669 4.79278Z" stroke="#0AF573" stroke-width="2"/>
<path d="M14.7337 16.5778V15.8564C14.7337 14.9621 14.7337 14.5149 14.6493 14.1451C14.3615 12.8841 13.3769 11.8995 12.1159 11.6117C11.7461 11.5273 11.2989 11.5273 10.4046 11.5273H6.31613C4.74733 11.5273 3.96293 11.5273 3.34413 11.7836C2.51913 12.1254 1.86362 12.7808 1.52192 13.6058C1.26562 14.2246 1.26562 15.009 1.26562 16.5778" stroke="#0AF573" stroke-width="2" stroke-linecap="round"/>
</svg>
